<svg width="106" height="36" viewBox="0 0 106 36" fill="none" xmlns="http://www.w3.org/2000/svg">
<path d="M43.6428 25.644C43.4888 25.644 43.3128 25.688 43.1588 25.688C42.6528 25.688 42.2568 25.38 42.2568 24.478C42.2568 23.642 42.4988 22.586 42.4988 21.684C42.4988 19.154 40.5188 17.548 36.7568 17.548C33.1268 17.548 30.9708 18.89 30.9708 21.002C30.9708 21.948 32.1808 22.762 33.5008 22.762C33.8528 22.762 34.1388 22.674 34.2048 22.432C34.4908 21.398 35.0628 20.606 36.0308 20.606C37.0868 20.606 37.5708 21.09 37.5708 22.52C37.5708 22.784 37.5488 23.136 37.5268 23.4C36.6248 23.202 35.5908 23.136 34.8868 23.136C32.1148 23.136 30.5308 24.28 30.5308 26.634C30.5308 28.856 32.0268 30.264 34.0508 30.264C35.8768 30.264 37.4168 29.032 37.8128 26.766L38.0548 26.81C38.0328 27.074 38.0108 27.382 38.0108 27.668C38.0108 29.164 38.8468 30.264 40.4308 30.264C42.6308 30.264 44.2588 28.108 44.2588 26.59C44.2588 26.04 43.9948 25.644 43.6428 25.644ZM36.1628 27.206C35.5688 27.206 35.1948 26.788 35.1948 26.084C35.1948 25.38 35.6128 24.918 36.6248 24.918C36.8888 24.918 37.2188 24.94 37.4828 25.006V25.292C37.4828 26.59 36.8888 27.206 36.1628 27.206Z" fill="#651DFF"/>
<path d="M49.5707 30.264C50.9787 30.264 51.8367 29.648 52.3867 28.196C52.8927 26.744 53.5087 24.698 54.0367 22.784C54.6307 24.654 55.3567 26.678 55.8847 28.042C56.5227 29.56 57.3367 30.264 58.8107 30.264C60.2407 30.264 61.1647 29.626 61.6487 28.174C62.6607 25.314 63.9807 21.31 64.6407 19.22C64.8827 18.45 65.2787 17.9 66.0267 17.218C66.6427 16.646 66.9287 16.14 66.9287 15.502C66.9287 14.182 65.8067 13.588 63.2987 13.588C60.9887 13.588 59.9327 14.182 59.9327 15.414C59.9327 15.766 60.0867 16.074 60.4827 16.492C60.8567 16.866 61.0327 17.218 61.0327 17.614C61.0327 17.988 60.9887 18.494 60.8567 19C60.4607 20.452 59.8667 23.114 59.3387 25.028C58.1727 21.002 57.2927 17.9 57.2927 17.284C57.2927 16.932 57.4247 16.58 57.7327 16.294C58.1727 15.854 58.2827 15.634 58.2827 15.216C58.2827 14.138 57.2047 13.588 54.8727 13.588C52.5407 13.588 51.3747 14.138 51.3747 15.216C51.3747 15.656 51.5287 15.92 52.0127 16.404C52.2767 16.646 52.4747 16.932 52.4747 17.284C52.4747 17.856 51.5067 21.618 50.6267 25.028C49.7687 22.124 49.2847 20.276 48.9987 19.132C48.8887 18.626 48.7787 17.988 48.7787 17.724C48.7787 17.372 48.9767 17.064 49.2627 16.734C49.5927 16.382 49.8347 15.898 49.8347 15.348C49.8347 14.138 48.7347 13.588 45.8747 13.588C43.0147 13.588 41.6287 14.292 41.6287 15.634C41.6287 16.228 41.8927 16.602 42.5967 17.218C43.0147 17.57 43.3447 18.076 43.5647 18.648C44.5327 21.376 45.5887 24.478 46.7327 28.064C47.2167 29.582 48.0307 30.264 49.5707 30.264Z" fill="#651DFF"/>
<path d="M76.7936 22.674C76.7936 19.286 74.4176 17.548 71.2716 17.548C67.2456 17.548 64.7376 20.54 64.7376 24.082C64.7376 27.954 67.3116 30.264 71.0517 30.264C74.5937 30.264 76.4856 28.24 76.4856 26.392C76.4856 25.556 76.1556 24.918 75.7816 24.918C75.6276 24.918 75.5177 25.028 75.3196 25.248C74.4837 26.216 73.2956 26.656 72.3276 26.656C70.8756 26.656 69.7316 25.732 69.5776 24.412L76.5956 24.39C76.7057 23.928 76.7936 23.378 76.7936 22.674ZM69.5117 22.85C69.5556 20.98 70.1716 19.968 71.1396 19.968C71.9096 19.968 72.4817 20.738 72.4817 22.102C72.4817 22.3 72.4596 22.498 72.4376 22.63L69.5117 22.85Z" fill="#651DFF"/>
<path d="M89.3194 22.674C89.3194 19.286 86.9434 17.548 83.7974 17.548C79.7714 17.548 77.2634 20.54 77.2634 24.082C77.2634 27.954 79.8374 30.264 83.5774 30.264C87.1194 30.264 89.0114 28.24 89.0114 26.392C89.0114 25.556 88.6814 24.918 88.3074 24.918C88.1534 24.918 88.0434 25.028 87.8454 25.248C87.0094 26.216 85.8214 26.656 84.8534 26.656C83.4014 26.656 82.2574 25.732 82.1034 24.412L89.1214 24.39C89.2314 23.928 89.3194 23.378 89.3194 22.674ZM82.0374 22.85C82.0814 20.98 82.6974 19.968 83.6654 19.968C84.4354 19.968 85.0074 20.738 85.0074 22.102C85.0074 22.3 84.9854 22.498 84.9634 22.63L82.0374 22.85Z" fill="#651DFF"/>
<path d="M102.214 25.798C101.884 25.49 99.5741 23.202 99.1341 22.74L100.014 21.948C100.696 21.288 101.202 20.892 101.928 20.65C102.808 20.386 103.292 19.968 103.292 19.198C103.292 18.23 102.5 17.548 100.036 17.548C97.5281 17.548 96.5601 18.208 96.5601 19.132C96.5601 19.616 96.8461 20.012 97.4621 20.232C97.9901 20.43 98.2321 20.65 98.2321 20.936C98.2321 21.222 98.0341 21.442 97.5061 21.838L95.2401 23.532V20.87C95.2401 17.966 95.7021 16.8 95.7021 15.414C95.7021 14.27 95.1081 13.588 92.8201 13.588C90.4441 13.588 88.9481 14.314 88.9481 15.744C88.9481 16.404 89.1901 16.646 89.9821 16.844C90.6201 16.998 90.8401 17.218 90.8401 17.922V25.798C90.8401 26.436 90.4661 26.788 90.0041 27.096C89.5201 27.448 89.0801 27.778 89.0801 28.504C89.0801 29.648 90.3341 30.264 93.0401 30.264C95.7241 30.264 96.2081 29.626 96.2081 28.482C96.2081 27.954 96.0541 27.602 95.6581 27.03C95.4161 26.788 95.2401 26.37 95.2401 25.71V24.302C95.9001 24.94 96.4721 25.578 97.1101 26.238C97.7261 26.854 98.0121 27.25 98.0121 27.624C98.0121 28.13 97.5941 28.306 97.5941 28.922C97.5941 29.824 98.6941 30.264 100.85 30.264C102.83 30.264 103.996 29.56 103.996 28.394C103.996 27.69 103.578 27.096 102.214 25.798Z" fill="#651DFF"/>
<path d="M16 34C24.8366 34 32 26.8366 32 18C32 9.16344 24.8366 2 16 2C7.16344 2 0 9.16344 0 18C0 26.8366 7.16344 34 16 34Z" fill="#651DFF"/>
<path d="M19.1361 27.647L19.1642 27.6319L19.1926 27.6165L19.2206 27.6014L19.2487 27.586L19.2768 27.5709L19.3049 27.5554L19.3329 27.5403L19.3614 27.5249L19.3894 27.5095L19.4175 27.4944L19.4456 27.4789L19.4736 27.4639L19.5017 27.4484L19.5301 27.4333L19.5582 27.4179L19.5863 27.4028L19.6143 27.3874L19.6424 27.3719L19.6708 27.3568L19.6989 27.3414L19.727 27.3263L19.7554 27.3109L19.7831 27.2958L19.8115 27.2803L19.8396 27.2649L19.8677 27.2498L19.8957 27.2344L19.9238 27.2193L19.9522 27.2039L19.9803 27.1888L20.0084 27.1733L20.0364 27.1582L20.0649 27.1428L20.0929 27.1274L20.121 27.1123L20.1491 27.0968L20.1771 27.0817L20.2056 27.0663L20.2336 27.0509L20.2617 27.0358L20.2898 27.0203L20.3178 27.0053L20.3463 26.9898L20.3743 26.9747L20.4024 26.9593L20.4305 26.9442L20.4585 26.9288L20.487 26.9133L20.515 26.8982L20.5431 26.8828L20.5712 26.8677L20.5992 26.8523L20.6277 26.8368L20.6557 26.8217L20.6838 26.8063L20.7119 26.7912L20.7399 26.7758L20.7684 26.7607L20.7964 26.7453L20.8245 26.7302L20.8526 26.7147L20.8806 26.6993L20.9091 26.6842L20.9371 26.6688L20.9652 26.6537L20.9933 26.6382L21.0214 26.6231L21.0494 26.6077L21.0778 26.5926L21.1059 26.5772L21.134 26.5621L21.1621 26.5467L21.1901 26.5312L21.2185 26.5161L21.2466 26.5007L21.2747 26.4856L21.3027 26.4702L21.3308 26.4551L21.3592 26.4396L21.3873 26.4242L21.4154 26.4091L21.4434 26.3937L21.4715 26.3786L21.4999 26.3632L21.528 26.3481L21.5561 26.3326L21.5842 26.3172L21.6122 26.3021L21.6406 26.2867L21.6687 26.2716L21.6968 26.2561L21.7249 26.241L21.7529 26.2256L21.7813 26.2102L21.8094 26.1951L21.8375 26.1796L21.8656 26.1646L21.894 26.1491C23.9466 25.0561 25.3561 23.2281 25.3561 21.254C25.3561 20.1853 24.7347 19.1909 24.0635 19.1909C23.9636 19.1916 23.8659 19.2191 23.7803 19.2705C23.7708 19.2751 23.7617 19.2803 23.7522 19.2856C23.7428 19.2909 23.7333 19.2954 23.7242 19.301C23.715 19.3067 23.7052 19.3109 23.6961 19.3161L23.6677 19.3316L23.6396 19.3467L23.6115 19.3621C23.602 19.367 23.5926 19.3719 23.5834 19.3775C23.5743 19.3832 23.5645 19.3874 23.5554 19.3926C23.5463 19.3979 23.5364 19.4024 23.527 19.4081L23.4989 19.4232C23.4894 19.4281 23.4803 19.433 23.4708 19.4386C23.4613 19.4442 23.4519 19.4484 23.4428 19.4537L23.4147 19.4691C23.4052 19.474 23.3957 19.4789 23.3863 19.4846L23.3582 19.4996C23.3487 19.5046 23.3396 19.5095 23.3301 19.5151C23.3206 19.5207 23.3112 19.5249 23.3021 19.5302C23.2929 19.5354 23.2831 19.54 23.274 19.5456L23.2456 19.5607L23.2175 19.5761L23.1894 19.5912L23.1614 19.6067C23.1519 19.6116 23.1424 19.6165 23.1333 19.6221C23.1242 19.6277 23.1143 19.6319 23.1049 19.6372C23.0954 19.6424 23.0863 19.647 23.0768 19.6526L23.0487 19.6677C23.0392 19.6726 23.0298 19.6775 23.0206 19.6831C23.0115 19.6888 23.0017 19.693 22.9926 19.6982L22.9642 19.7137C22.955 19.7186 22.9456 19.7235 22.9361 19.7291C22.9266 19.7347 22.9175 19.7389 22.908 19.7442C22.8985 19.7495 22.8891 19.754 22.8799 19.7596C22.8708 19.7653 22.861 19.7695 22.8519 19.7747C22.8428 19.78 22.8329 19.7846 22.8238 19.7902L22.7954 19.8053L22.7673 19.8207C22.7578 19.8256 22.7484 19.8305 22.7392 19.8361C22.7301 19.8417 22.7203 19.846 22.7112 19.8512C22.7021 19.8565 22.6922 19.861 22.6831 19.8667C22.674 19.8723 22.6642 19.8765 22.6547 19.8817C22.6452 19.887 22.6361 19.8916 22.6266 19.8972L22.5985 19.9123L22.5705 19.9277C22.561 19.9326 22.5515 19.9375 22.5424 19.9428L22.514 19.9582C22.5045 19.9632 22.4954 19.9681 22.4859 19.9737C22.4764 19.9793 22.4673 19.9835 22.4578 19.9888C22.4484 19.994 22.4389 19.9986 22.4298 20.0042C22.4206 20.0098 22.4108 20.014 22.4017 20.0193C22.3926 20.0246 22.3827 20.0291 22.3733 20.0347L22.3452 20.0498L22.3171 20.0653C22.3077 20.0702 22.2982 20.0751 22.2891 20.0807C22.2799 20.0863 22.2701 20.0905 22.261 20.0958C22.2519 20.101 22.242 20.1056 22.2326 20.1112L22.2045 20.1263C22.195 20.1312 22.1859 20.1361 22.1764 20.1417C22.167 20.1474 22.1575 20.1516 22.1484 20.1568L22.1203 20.1723L22.0919 20.1874L22.0638 20.2028C22.0543 20.2077 22.0452 20.2126 22.0357 20.2182C22.0263 20.2239 22.0168 20.2281 22.0077 20.2333C21.9985 20.2386 21.9887 20.2432 21.9796 20.2488L21.9512 20.2639C21.9417 20.2688 21.9326 20.2737 21.9231 20.2793L21.895 20.2944L21.867 20.3098C21.8575 20.3147 21.848 20.3196 21.8389 20.3253C21.8298 20.3309 21.8199 20.3351 21.8105 20.3403C21.801 20.3456 21.7919 20.3502 21.7824 20.3558L21.7543 20.3709C21.7449 20.3758 21.7354 20.3807 21.7263 20.3863C21.7171 20.3919 21.7073 20.3961 21.6982 20.4014L21.6698 20.4168C21.6606 20.4217 21.6512 20.4267 21.6417 20.4323C21.6322 20.4379 21.6231 20.4421 21.6136 20.4474C21.6042 20.4526 21.5947 20.4572 21.5856 20.4628C21.5764 20.4684 21.5666 20.4726 21.5575 20.4779C21.5484 20.4832 21.5385 20.4877 21.5291 20.4933L21.501 20.5084L21.4729 20.5238C21.4635 20.5288 21.454 20.5337 21.4449 20.5389L21.4168 20.5544C21.4073 20.5593 21.3978 20.5642 21.3884 20.5698L21.3603 20.5849C21.3508 20.5898 21.3417 20.5947 21.3322 20.6003C21.3228 20.606 21.3133 20.6102 21.3042 20.6154C21.295 20.6207 21.2852 20.6253 21.2761 20.6309L21.2477 20.646L21.2196 20.6614C21.2101 20.6663 21.201 20.6712 21.1915 20.6768C21.182 20.6824 21.1726 20.6867 21.1635 20.6919C21.1543 20.6972 21.1445 20.7017 21.1354 20.7074C21.1263 20.713 21.1164 20.7172 21.107 20.7225C21.0975 20.7277 21.0884 20.7323 21.0789 20.7379L21.0508 20.753L21.0227 20.7684C21.0133 20.7733 21.0038 20.7782 20.9947 20.7835L20.9663 20.7989C20.7691 20.9007 20.5912 21.1221 20.4508 21.4554C20.2803 21.8402 20.0781 22.2101 19.8463 22.5614C17.6175 22.3544 15.9599 18.9453 15.9599 15.1389C15.9599 14.3484 16.0354 13.6509 16.1768 13.067C16.6466 13.4803 17.108 14.2196 17.6915 15.4151C18.7357 17.5779 19.4066 18.2986 20.4259 18.2986C20.6628 18.2982 20.8956 18.2367 21.1017 18.12L21.1298 18.1049L21.1578 18.0895L21.1859 18.074L21.2143 18.0589L21.2424 18.0435L21.2705 18.0284L21.2985 18.013L21.3266 17.9979L21.355 17.9824L21.3831 17.967L21.4112 17.9519L21.4392 17.9365C21.4487 17.9316 21.4582 17.9267 21.4673 17.9214L21.4957 17.906L21.5238 17.8909L21.5519 17.8754L21.5799 17.86C21.5894 17.8551 21.5989 17.8502 21.608 17.8449L21.6364 17.8295L21.6645 17.8144L21.6926 17.7989L21.7206 17.7839L21.7487 17.7684L21.7771 17.7533L21.8052 17.7379L21.8333 17.7225L21.8614 17.7074L21.8894 17.6919L21.9178 17.6768L21.9459 17.6614L21.974 17.6463L22.0021 17.6309L22.0301 17.6154C22.0396 17.6105 22.0491 17.6056 22.0582 17.6003L22.0866 17.5849L22.1147 17.5698L22.1428 17.5544L22.1708 17.5393L22.1989 17.5238L22.2273 17.5088L22.2554 17.4933L22.2835 17.4779C22.2929 17.473 22.3024 17.4681 22.3115 17.4628L22.3396 17.4474L22.368 17.4323L22.3961 17.4168L22.4242 17.4017L22.4522 17.3863L22.4803 17.3709L22.5087 17.3558L22.5368 17.3403L22.5649 17.3253L22.5929 17.3098L22.621 17.2947L22.6494 17.2793L22.6775 17.2642L22.7056 17.2488L22.7336 17.2333C22.7431 17.2284 22.7526 17.2235 22.7617 17.2182L22.7901 17.2028L22.8182 17.1877L22.8463 17.1723L22.8743 17.1572L22.9024 17.1417L22.9308 17.1263L22.9589 17.1112L22.987 17.0958C22.9964 17.0909 23.0059 17.086 23.015 17.0807L23.0435 17.0653L23.0715 17.0502L23.0996 17.0347L23.1277 17.0193C23.1371 17.0144 23.1466 17.0095 23.1557 17.0042L23.1838 16.9888L23.2122 16.9737L23.2403 16.9582L23.2684 16.9431L23.2964 16.9277L23.3245 16.9123L23.3529 16.8972L23.381 16.8817L23.4091 16.8667L23.4371 16.8512L23.4652 16.8361L23.4933 16.8207L23.5217 16.8056L23.5498 16.7902L23.5778 16.7747C23.5873 16.7698 23.5968 16.7649 23.6059 16.7596L23.634 16.7442L23.6624 16.7291L23.6905 16.7137L23.7185 16.6986L23.7466 16.6831L23.775 16.6677L23.8031 16.6526L23.8312 16.6372C23.8406 16.6323 23.8501 16.6274 23.8592 16.6221L23.8873 16.6067L23.9157 16.5916C24.7319 16.1596 25.3063 14.8979 25.3063 13.1256C25.3063 10.267 24.1877 8.32806 22.5473 8.32806C22.1505 8.32806 21.7438 8.44069 21.3168 8.67438L21.2887 8.68946L21.2606 8.70491L21.2326 8.71999L21.2042 8.73543L21.1761 8.75051L21.148 8.76596L21.1199 8.78104L21.0919 8.79648L21.0635 8.81192L21.0354 8.82701L21.0073 8.84245L20.9792 8.85753L20.9512 8.87297L20.9228 8.88806L20.8947 8.9035L20.8666 8.91894L20.8385 8.93403L20.8105 8.94947L20.7821 8.96455L20.754 8.97999L20.7259 8.99508L20.6978 9.01052L20.6698 9.0256L20.6413 9.04104L20.6133 9.05649L20.5852 9.07157L20.5571 9.08701L20.5291 9.10209L20.5006 9.11754L20.4726 9.13262L20.4445 9.14806L20.4164 9.16314L20.3884 9.17859L20.3603 9.19403L20.3319 9.20911L20.3038 9.22455L20.2757 9.23964L20.2477 9.25508L20.2196 9.27016L20.1912 9.2856L20.1631 9.30105L20.135 9.31613L20.107 9.33157L20.0789 9.34665L20.0505 9.3621L20.0224 9.37718L19.9943 9.39262L19.9663 9.40806C19.9568 9.41297 19.9473 9.41789 19.9382 9.42315L19.9098 9.43859L19.8817 9.45367L19.8536 9.46912L19.8256 9.4842L19.7975 9.49964L19.7691 9.51508L19.741 9.53017L19.7129 9.54561L19.6849 9.56069L19.6564 9.57613L19.6284 9.59122L19.6003 9.60666L19.5722 9.6221L19.5442 9.63718L19.5161 9.65263L19.4877 9.66771L19.4596 9.68315L19.4315 9.69823L19.4035 9.71368L19.3754 9.72876L19.347 9.7442L19.3357 9.75016C18.6466 8.81367 17.5982 8.32806 16.2582 8.32806C15.3205 8.32828 14.3986 8.56996 13.5814 9.02982C13.5719 9.03473 13.5624 9.03964 13.5533 9.0449L13.5249 9.06034L13.4968 9.07543L13.4687 9.09087L13.4406 9.10631C13.4312 9.11122 13.4217 9.11613 13.4126 9.12139L13.3845 9.13683L13.3561 9.15192L13.328 9.16736L13.2999 9.18244L13.2719 9.19788L13.2438 9.21298L13.2154 9.22841L13.1873 9.24385L13.1592 9.25893L13.1312 9.27438L13.1027 9.28946L13.0747 9.3049L13.0466 9.31999L13.0185 9.33543L12.9905 9.35087C12.981 9.35578 12.9715 9.36069 12.9624 9.36595L12.934 9.3814L12.9059 9.39648L12.8778 9.41192L12.8498 9.42701L12.8217 9.44245L12.7933 9.45789L12.7652 9.47297L12.7371 9.48841C12.7277 9.49332 12.7182 9.49824 12.7091 9.5035L12.681 9.51894L12.6526 9.53402L12.6245 9.54946L12.5964 9.56456L12.5684 9.57999L12.5403 9.59543L12.5119 9.61051L12.4838 9.62596L12.4557 9.64104L12.4277 9.65648L12.3996 9.67157L12.3712 9.68701C12.3621 9.69227 12.3526 9.69718 12.3431 9.7021L12.315 9.71753L12.287 9.73297C12.2775 9.73788 12.268 9.7428 12.2589 9.74806L12.2305 9.7635L12.2024 9.77858L12.1743 9.79402L12.1463 9.80912L12.1182 9.82455L12.0898 9.83999L12.0617 9.85508L12.0336 9.87052C12.0242 9.87543 12.0147 9.88034 12.0056 9.8856L11.9775 9.90104L11.9494 9.91613L11.921 9.93157L11.8929 9.94701L11.8649 9.96209L11.8368 9.97754C11.8273 9.98245 11.8178 9.98736 11.8087 9.99262L11.7803 10.0081L11.7522 10.0231L11.7242 10.0386L11.6961 10.054L11.6677 10.0691L11.6396 10.0845L11.6115 10.0996L11.5834 10.1151L11.5554 10.1302L11.5273 10.1456L11.4989 10.1607L11.4708 10.1761L11.4428 10.1916C11.4333 10.1965 11.4238 10.2014 11.4147 10.2067L11.3866 10.2221L11.3582 10.2372L11.3301 10.2526L11.3021 10.2677L11.274 10.2832L11.2456 10.2986L11.2175 10.3137L11.1894 10.3291L11.1614 10.3442L11.1333 10.3596L11.1049 10.3747L11.0768 10.3902C11.0677 10.3954 11.0582 10.4003 11.0487 10.4053L11.0206 10.4207L10.9926 10.4361L10.9642 10.4512L10.9361 10.4667L10.908 10.4817L10.8799 10.4972L10.8519 10.5123L10.8235 10.5277C10.8143 10.533 10.8049 10.5379 10.7954 10.5428L10.7673 10.5582C8.31504 11.9049 6.65503 15.1049 6.65503 18.9947C6.65503 24.4635 9.81293 28.7389 14.8329 28.7389C16.3137 28.7386 17.7717 28.3742 19.0785 27.6779L19.1066 27.6624L19.1361 27.647Z" fill="#DBD2ED"/>
<path d="M9.49707 17.4509C9.49707 12.2807 12.4301 8.32806 16.2581 8.32806C17.7746 8.32806 18.9178 8.94947 19.589 10.1428C20.7076 8.89999 21.6522 8.32806 22.5473 8.32806C24.1876 8.32806 25.3062 10.267 25.3062 13.1256C25.3062 15.3379 24.4115 16.7547 23.2679 16.7547C22.2504 16.7547 21.5778 16.034 20.5336 13.8712C19.516 11.7835 18.8683 11.0874 17.8988 11.0874C16.7058 11.0874 15.9599 12.6533 15.9599 15.1389C15.9599 19.0667 17.7248 22.5716 20.0613 22.5716C21.4532 22.5716 22.4725 21.7263 23.2929 19.9116C23.4918 19.4393 23.7651 19.1909 24.0648 19.1909C24.736 19.1909 25.3574 20.1853 25.3574 21.254C25.3574 24.4119 21.7532 27.1951 17.6764 27.1951C12.6539 27.1951 9.49707 22.9196 9.49707 17.4509Z" fill="#F6F8E6"/>
</svg>
