<svg xmlns="http://www.w3.org/2000/svg">

  <symbol id="icon-arrow-top" fill="none" viewBox="0 0 24 24">
    <path d="M5 15L12 8L19 15" stroke-linecap="round" stroke-linejoin="round"/>
  </symbol>
  
  <symbol id="icon-arrow-bottom" fill="none" viewBox="0 0 24 24">
    <path d="M19 9L12 16L5 9" stroke-linecap="round" stroke-linejoin="round"/>
  </symbol>

  <symbol id="icon-arrow-right" fill="none" viewBox="0 0 24 24">
    <path d="M9 19L16 12L9 5" stroke-linecap="round" stroke-linejoin="round"/>
  </symbol>

  <symbol id="icon-arrow-left" fill="none" viewBox="0 0 24 24">
    <path d="M15 18L9 12L15 6" stroke-linecap="round" stroke-linejoin="round"/>
  </symbol>

  <symbol id="icon-arrow-next" fill="none" viewBox="0 0 24 24">
    <path d="M14 7L19 12L14 17" stroke-linecap="round" stroke-linejoin="round"/>
    <line x1="18.5" y1="12" x2="4.5" y2="12" stroke-linejoin="round"/>
  </symbol>

  <symbol id="icon-arrow-prev" fill="none" viewBox="0 0 24 24">
    <path d="M10 17L5 12L10 7" stroke-linecap="round" stroke-linejoin="round"/>
    <line x1="6" y1="12" x2="19" y2="12" stroke-linecap="round" stroke-linejoin="round"/>
  </symbol>

  <symbol id="icon-check" fill="none" viewBox="0 0 24 24">
    <path d="M18 8L9.99999 16L6 12" stroke-linecap="round" stroke-linejoin="round"/>
  </symbol>

  <symbol id="icon-close" fill="none" viewBox="0 0 24 24">
    <path d="M18 6L6 18" stroke-linecap="round"/>
    <path d="M18 18L6 6" stroke-linecap="round"/>
  </symbol>

  <symbol id="icon-plus" fill="none" viewBox="0 0 24 24">
    <path d="M12 4V20" stroke-linecap="round" stroke-linejoin="round"/>
    <path d="M20 12L4 12" stroke-linecap="round" stroke-linejoin="round"/>
  </symbol>

  <symbol id="icon-menu" fill="none" viewBox="0 0 24 24">
    <path d="M4 6H20" stroke-linecap="round"/>
    <path d="M4 12H20" stroke-linecap="round"/>
    <path d="M4 18H20" stroke-linecap="round"/>
  </symbol>

  <symbol id="icon-pencil" fill="none" viewBox="0 0 24 24">
    <path d="M12.2759 7.31034L15.5862 4L20 8.41379L16.6897 11.7241M12.2759 7.31034L4.55172 15.0345L4 20L8.96552 19.4483L16.6897 11.7241M12.2759 7.31034L16.6897 11.7241" stroke-linejoin="round"/>
  </symbol>

  <symbol id="icon-share" fill="none" viewBox="0 0 24 24">
    <path d="M5 16.5V18C5 19.1046 5.89543 20 7 20H17C18.1046 20 19 19.1046 19 18V16.5" stroke-linecap="round" stroke-linejoin="round"/>
    <path d="M12 16V5M12 5L7 9M12 5L17 9" stroke-linecap="round" stroke-linejoin="round"/>
  </symbol>

  <symbol id="icon-share-square" fill="none" viewBox="0 0 24 24">
    <path d="M10 5H7C5.89543 5 5 5.89543 5 7V17C5 18.1046 5.89543 19 7 19H17C18.1046 19 19 18.1046 19 17V14" stroke-linecap="round" stroke-linejoin="round"/>
    <path d="M14 5H19V10" stroke-linecap="round" stroke-linejoin="round"/>
    <path d="M19 5L12 12" stroke-linecap="round" stroke-linejoin="round"/>
  </symbol>

  <symbol id="icon-camera" fill="none" viewBox="0 0 24 24">
    <path fill-rule="evenodd" clip-rule="evenodd" d="M20 9.15625V17.9062C20 18.5103 19.5523 19 19 19H5C4.44772 19 4 18.5103 4 17.9062V9.15625C4 8.55219 4.44772 8.0625 5 8.0625H7L9 5H15L17 8.0625H19C19.5523 8.0625 20 8.55219 20 9.15625Z" stroke-linecap="round" stroke-linejoin="round"/>
    <circle cx="12" cy="13" r="3" stroke-linecap="round" stroke-linejoin="round"/>
  </symbol>

  <symbol id="icon-info" viewBox="0 0 24 24">
    <path fill-rule="evenodd" clip-rule="evenodd" d="M12 19C15.866 19 19 15.866 19 12C19 8.13401 15.866 5 12 5C8.13401 5 5 8.13401 5 12C5 15.866 8.13401 19 12 19ZM12 20C16.4183 20 20 16.4183 20 12C20 7.58172 16.4183 4 12 4C7.58172 4 4 7.58172 4 12C4 16.4183 7.58172 20 12 20Z" />
    <circle cx="12.0003" cy="8.57132" r="1.14286"/>
    <rect x="11.1426" y="10.8572" width="1.71429" height="5.71429" rx="0.857143" />
  </symbol>

  <symbol id="icon-question" viewBox="0 0 24 24">
    <path fill-rule="evenodd" clip-rule="evenodd" d="M12 18.8571C15.7871 18.8571 18.8571 15.7871 18.8571 12C18.8571 8.2129 15.7871 5.14286 12 5.14286C8.2129 5.14286 5.14286 8.2129 5.14286 12C5.14286 15.7871 8.2129 18.8571 12 18.8571ZM12 20C16.4183 20 20 16.4183 20 12C20 7.58172 16.4183 4 12 4C7.58172 4 4 7.58172 4 12C4 16.4183 7.58172 20 12 20Z" />
    <circle cx="12.0003" cy="15.7144" r="1.14286"/>
    <path d="M12.7577 13.3891C12.7577 13.7265 12.4843 14 12.1469 14H11.99C11.566 14 11.2223 13.6562 11.2223 13.2322V13.1527C11.2223 12.798 11.2611 12.5353 11.3389 12.3645C11.4296 12.1806 11.624 11.9376 11.922 11.6354L12.9132 10.6305C13.1206 10.4072 13.2242 10.1182 13.2242 9.76351C13.2242 9.42197 13.1141 9.13954 12.8938 8.91622C12.6865 8.6929 12.4079 8.58125 12.058 8.58125C11.7082 8.58125 11.4166 8.6929 11.1834 8.91622C11.1315 8.96298 11.0848 9.01331 11.0431 9.06721C10.7847 9.40193 10.4674 9.76351 10.0445 9.76351V9.76351C9.56339 9.76351 9.17578 9.33671 9.35041 8.88845C9.51056 8.47737 9.75226 8.13194 10.0755 7.85218C10.6197 7.37928 11.3 7.14282 12.1163 7.14282C12.9327 7.14282 13.5935 7.37271 14.0988 7.83248C14.6042 8.27911 14.8569 8.89652 14.8569 9.68469C14.8569 10.2233 14.7014 10.6831 14.3904 11.064C14.196 11.3267 13.9498 11.596 13.6518 11.8719C13.3408 12.1609 13.127 12.3776 13.0104 12.5221C12.842 12.7586 12.7577 13.0476 12.7577 13.3891V13.3891Z" />
  </symbol>

  <symbol id="icon-search" fill="none" viewBox="0 0 24 24">
    <circle cx="11" cy="11" r="6" />
    <path d="M16 16L19 19" stroke-linecap="round" stroke-linejoin="round"/>
  </symbol>

  <symbol id="icon-close-round" viewBox="0 0 24 24">
    <rect x="2" y="2" width="20" height="20" rx="10" stroke="none" fill="#E4E4E6"/>
    <path d="M15 9L9 15" stroke-linecap="round"/>
    <path d="M15 15L9 9" stroke-linecap="round"/>
  </symbol>

  <symbol id="icon-heart" viewBox="0 0 16 16">
    <path d="M10.7931 3C9.63517 3.0001 8.56725 3.6041 8 4.57998C7.43275 3.6041 6.36483 3.0001 5.2069 3C3.43585 3 2 4.58799 2 6.3C2 10.6 8 13.6 8 13.6C8 13.6 14 10.6 14 6.3C14 4.58799 12.5641 3 10.7931 3Z" />
  </symbol>

  <symbol id="icon-alarm" viewBox="0 0 24 24">
    <path fill-rule="evenodd" clip-rule="evenodd" d="M18 9C18 5.68629 15.3137 3 12 3C8.68629 3 6 5.68629 6 9V14.0667L5.06591 15.4367C4.61331 16.1005 5.08872 17 5.89214 17H18.1079C18.9113 17 19.3867 16.1005 18.9341 15.4367L18 14.0667V9Z" />
    <path d="M12 21C13.6569 21 15 19.6569 15 18H9C9 19.6569 10.3431 21 12 21Z" />
  </symbol>

  <symbol id="icon-people" viewBox="0 0 24 24">
    <path fill-rule="evenodd" clip-rule="evenodd" d="M18.0002 10C18.0002 11.1027 17.1028 12 16.0002 12C14.8975 12 14.0002 11.1027 14.0002 10C14.0002 8.89733 14.8975 8 16.0002 8C17.1028 8 18.0002 8.89733 18.0002 10ZM12 17.375C12 14.9588 13.7909 13 16 13C18.2091 13 20 14.9588 20 17.375C20 17.7202 19.7202 18 19.375 18H12.625C12.2798 18 12 17.7202 12 17.375Z" fill="#ABABB2"/>
    <path fill-rule="evenodd" clip-rule="evenodd" d="M12.1668 9C12.1668 10.6545 10.8213 12 9.16683 12C7.51233 12 6.16683 10.6545 6.16683 9C6.16683 7.3455 7.51233 6 9.16683 6C10.8213 6 12.1668 7.3455 12.1668 9ZM4 18.25C4 15.3505 6.23858 13 9 13C11.7614 13 14 15.3505 14 18.25C14 18.6642 13.6642 19 13.25 19H4.75C4.33579 19 4 18.6642 4 18.25Z" fill="#141414"/>
  </symbol>

  <symbol id="icon-message-round" viewBox="0 0 24 24">
    <path fill-rule="evenodd" clip-rule="evenodd" d="M11.9992 11.1991C11.5576 11.1991 11.1992 11.5575 11.1992 11.9991C11.1992 12.4406 11.5576 12.799 11.9992 12.799C12.4408 12.799 12.7991 12.4406 12.7991 11.9991C12.7991 11.5575 12.4408 11.1991 11.9992 11.1991ZM15.2004 11.1991C14.7588 11.1991 14.4004 11.5575 14.4004 11.9991C14.4004 12.4406 14.7588 12.799 15.2004 12.799C15.6419 12.799 16.0003 12.4406 16.0003 11.9991C16.0003 11.5575 15.6419 11.1991 15.2004 11.1991ZM8.79996 11.1991C8.35838 11.1991 8 11.5575 8 11.9991C8 12.4406 8.35838 12.799 8.79996 12.799C9.24155 12.799 9.59993 12.4406 9.59993 11.9991C9.59993 11.5575 9.24155 11.1991 8.79996 11.1991ZM17.6567 6.34243C15.8288 4.51531 13.3009 3.70015 10.7178 4.09933C7.45633 4.60811 4.75245 7.23519 4.14207 10.4887C3.84769 12.055 4.01728 13.6501 4.63085 15.1004C4.70845 15.2852 4.73245 15.4572 4.70205 15.6116L4.01568 19.0419C3.96288 19.3043 4.04528 19.5754 4.23487 19.7642C4.38606 19.9162 4.59005 19.9986 4.80044 19.9986C4.85244 19.9986 4.90444 19.9938 4.95724 19.9834L8.38349 19.2979C8.58028 19.2603 8.77067 19.3155 8.89786 19.3683C10.3498 19.9818 11.9449 20.1506 13.5097 19.857C16.7639 19.2467 19.391 16.5428 19.8998 13.2813C20.3014 10.6998 19.4846 8.17035 17.6567 6.34243Z" fill="#141414"/>
  </symbol>

  <symbol id="icon-message-square" viewBox="0 0 24 24">
    <path d="M5.3549 17.9728C5.1358 17.8505 5 17.6205 5 17.3718V15.9902H9.5878C9.4611 15.9902 9.3365 16.0241 9.2273 16.089L6.0605 17.9638C5.9492 18.0301 5.8246 18.0626 5.7 18.0626C5.581 18.0626 5.462 18.0329 5.3549 17.9728Z" fill="#ABABB2"/>
    <path d="M7.1 4.9375H16.9C18.0578 4.9375 19 5.8673 19 7.00987V13.9178C19 15.0603 18.0578 15.9901 16.9 15.9901H5V7.00987C5 5.8673 5.9422 4.9375 7.1 4.9375Z" fill="#E4E4E6"/>
    <path fill-rule="evenodd" clip-rule="evenodd" d="M8.5 10.75C8.5 10.336 8.836 10 9.25 10C9.664 10 10 10.336 10 10.75C10 11.164 9.664 11.5 9.25 11.5C8.836 11.5 8.5 11.164 8.5 10.75ZM12.249 10C11.835 10 11.499 10.336 11.499 10.75C11.499 11.164 11.835 11.5 12.249 11.5C12.6629 11.5 12.9989 11.164 12.9989 10.75C12.9989 10.336 12.6629 10 12.249 10ZM15.2501 10C14.8361 10 14.5001 10.336 14.5001 10.75C14.5001 11.164 14.8361 11.5 15.2501 11.5C15.6641 11.5 16.0001 11.164 16.0001 10.75C16.0001 10.336 15.6641 10 15.2501 10Z" fill="#141414"/>
  </symbol>

  <symbol id="icon-home" viewBox="0 0 24 24">
    <path fill-rule="evenodd" clip-rule="evenodd" d="M10.5774 4.71325L4.76065 9.3058C4.28026 9.68508 4 10.2634 4 10.8755V18.0027C4 19.1073 4.89543 20.0027 6 20.0027H9.33398V15.5047C9.33398 14.9988 9.74407 14.5888 10.2499 14.5888H13.7514C14.2572 14.5888 14.6673 14.9988 14.6673 15.5047V20.0027H18C19.1046 20.0027 20 19.1073 20 18.0027V10.908C20 10.2775 19.7028 9.68403 19.1979 9.30642L13.0147 4.68141C12.2889 4.13853 11.2887 4.15159 10.5774 4.71325Z" />
  </symbol>

  <symbol id="icon-setting" viewBox="0 0 24 24">
    <path fill-rule="evenodd" clip-rule="evenodd" d="M13.5028 20H10.5008C10.1133 20 9.77803 19.7384 9.6951 19.3712L9.35944 17.864C8.91167 17.6737 8.48708 17.4357 8.09351 17.1544L6.57851 17.6224C6.20904 17.7367 5.80739 17.5858 5.6136 17.26L4.10932 14.7392C3.91765 14.4132 3.98368 14.002 4.26849 13.748L5.44371 12.708C5.39026 12.2369 5.39026 11.7615 5.44371 11.2904L4.26849 10.2528C3.98326 9.99869 3.9172 9.58698 4.10932 9.2608L5.6103 6.7384C5.80409 6.41256 6.20574 6.26171 6.57521 6.376L8.09021 6.844C8.29149 6.69932 8.50103 6.56578 8.71782 6.444C8.92592 6.33016 9.1401 6.22708 9.35944 6.1352L9.69593 4.6296C9.77846 4.26237 10.1134 4.0004 10.5008 4H13.5028C13.8903 4.0004 14.2252 4.26237 14.3077 4.6296L14.6475 6.136C14.8791 6.23481 15.1046 6.34646 15.3229 6.4704C15.5266 6.58465 15.7235 6.70991 15.9126 6.8456L17.4284 6.3776C17.7977 6.26374 18.1988 6.41453 18.3925 6.74L19.8935 9.2624C20.0852 9.58839 20.0191 9.99961 19.7343 10.2536L18.5591 11.2936C18.6126 11.7647 18.6126 12.2401 18.5591 12.7112L19.7343 13.7512C20.0191 14.0052 20.0852 14.4164 19.8935 14.7424L18.3925 17.2648C18.1988 17.5903 17.7977 17.7411 17.4284 17.6272L15.9126 17.1592C15.7208 17.2962 15.5215 17.4231 15.3155 17.5392C15.0993 17.6607 14.8763 17.7705 14.6475 17.868L14.3077 19.3712C14.2249 19.7381 13.89 19.9997 13.5028 20ZM12 14C13.1046 14 14 13.1046 14 12C14 10.8954 13.1046 10 12 10C10.8954 10 10 10.8954 10 12C10 13.1046 10.8954 14 12 14Z" />
  </symbol>

  <symbol id="icon-person" viewBox="0 0 24 24">
    <circle cx="12" cy="8" r="4" />
    <path d="M4.95768 17.8077C5.81375 14.9542 8.44023 13 11.4194 13H12.5806C15.5598 13 18.1863 14.9542 19.0423 17.8077V17.8077C19.5196 19.3988 18.3283 21 16.6672 21H7.33281C5.67174 21 4.48037 19.3988 4.95768 17.8077V17.8077Z" />
  </symbol>

  <symbol id="icon-viewer" viewBox="0 0 24 24">
    <path fill-rule="evenodd" clip-rule="evenodd" d="M3 12C4 10 7.2 6 12 6C16.8 6 20 10 21 12C20.1667 14 17.2 18 12 18C6.8 18 3.83333 14 3 12ZM12 16C14.2091 16 16 14.2091 16 12C16 9.79086 14.2091 8 12 8C9.79086 8 8 9.79086 8 12C8 14.2091 9.79086 16 12 16Z" />
    <circle cx="12" cy="12" r="2" />
  </symbol>

  <symbol id="icon-more-thin" viewBox="0 0 24 24">
    <circle cx="12" cy="6.49951" r="1" />
    <circle cx="12" cy="11.9995" r="1" />
    <path d="M13 17.4995C13 18.0518 12.5523 18.4995 12 18.4995C11.4477 18.4995 11 18.0518 11 17.4995C11 16.9472 11.4477 16.4995 12 16.4995C12.5523 16.4995 13 16.9472 13 17.4995Z" />
  </symbol>

  <symbol id="icon-more-bold" viewBox="0 0 24 24">
    <circle cx="12.002" cy="6.49805" r="1.5" />
    <circle cx="12.002" cy="11.998" r="1.5" />
    <path d="M13.502 17.498C13.502 18.3265 12.8304 18.998 12.002 18.998C11.1735 18.998 10.502 18.3265 10.502 17.498C10.502 16.6696 11.1735 15.998 12.002 15.998C12.8304 15.998 13.502 16.6696 13.502 17.498Z" />
  </symbol>

  <symbol id="icon-download" fill="none" viewBox="0 0 24 24">
    <path d="M16 10.5L12 14.5L8 10.5" stroke-linecap="round" stroke-linejoin="round"/>
    <path d="M12 5V14" stroke-linecap="round" stroke-linejoin="round"/>
    <path d="M19 14V17C19 18.1046 18.1046 19 17 19H7C5.89543 19 5 18.1046 5 17V14" stroke-linecap="round" stroke-linejoin="round"/>
  </symbol>

  <symbol id="icon-highlight" viewBox="0 0 24 24">
    <path d="M7.76396 11.1245L7.76414 11.1246L7.76714 11.1114C7.82352 10.8648 7.95774 10.5613 8.19558 10.1972C8.47972 9.7833 8.73574 9.47105 8.96271 9.2504L8.97466 9.23878L8.98582 9.22639C9.21469 8.97211 9.53777 8.68864 9.96521 8.37699C10.1386 8.25057 10.2935 8.10728 10.409 7.94238C10.5098 7.80781 10.5877 7.63536 10.5877 7.43243C10.5877 7.22358 10.5052 7.04701 10.4001 6.9108L10.3784 6.88256L10.3528 6.8577L10.2972 6.80365L10.2718 6.77899L10.2432 6.75814C10.0085 6.58699 9.7383 6.5 9.44823 6.5C9.2076 6.5 8.95873 6.54532 8.74289 6.68122C8.55888 6.78877 8.35939 6.9121 8.14471 7.05081C7.89823 7.17351 7.65819 7.3307 7.42424 7.51875C7.14448 7.71439 6.86904 7.94515 6.59757 8.20906C6.34687 8.45278 6.12072 8.73317 5.91795 9.04762C5.45057 9.73028 5.09589 10.4378 4.85808 11.1699C4.62122 11.899 4.5 12.6178 4.5 13.3243C4.5 14.3918 4.7865 15.3565 5.36609 16.2017L5.37401 16.2132L5.38256 16.2243C6.05098 17.0907 7.02651 17.5 8.22496 17.5C9.01955 17.5 9.72833 17.2175 10.333 16.6741C10.9963 16.1124 11.3383 15.3803 11.3383 14.5135C11.3383 13.7301 11.0439 13.0222 10.494 12.4029C9.93139 11.7327 9.22441 11.3649 8.39177 11.3649C8.32448 11.3649 8.26376 11.378 8.24113 11.3829L8.24102 11.3829C8.20691 11.3903 8.16997 11.3998 8.13286 11.4101C8.06465 11.4291 7.97911 11.4553 7.87836 11.4877C7.80178 11.502 7.73789 11.5117 7.68546 11.518C7.70049 11.4029 7.726 11.2722 7.76396 11.1245ZM15.9257 11.1245L15.9258 11.1246L15.9288 11.1114C15.9852 10.8648 16.1194 10.5613 16.3573 10.1972C16.6414 9.7833 16.8974 9.47105 17.1244 9.2504L17.1364 9.23878L17.1475 9.22639C17.3764 8.97211 17.6995 8.68863 18.1269 8.37698C18.3003 8.25056 18.4552 8.10728 18.5707 7.94237C18.6715 7.80781 18.7494 7.63536 18.7494 7.43243C18.7494 7.22358 18.6669 7.04701 18.5618 6.9108L18.5401 6.88256L18.5145 6.8577L18.4589 6.80365L18.4335 6.77899L18.4049 6.75814C18.1702 6.58699 17.9 6.5 17.6099 6.5C17.3693 6.5 17.1204 6.54532 16.9046 6.68122C16.7206 6.78877 16.5211 6.9121 16.3064 7.05081C16.0599 7.17351 15.8199 7.3307 15.5859 7.51876C15.3062 7.71439 15.0307 7.94515 14.7593 8.20906C14.5086 8.45278 14.2824 8.73316 14.0797 9.04761C13.6123 9.73027 13.2576 10.4378 13.0198 11.1699C12.7829 11.899 12.6617 12.6178 12.6617 13.3243C12.6617 14.3918 12.9482 15.3565 13.5278 16.2017L13.5357 16.2132L13.5443 16.2243C14.2127 17.0907 15.1882 17.5 16.3867 17.5C17.1813 17.5 17.89 17.2175 18.4947 16.6741C19.158 16.1124 19.5 15.3803 19.5 14.5135C19.5 13.7301 19.2056 13.0222 18.6557 12.4029C18.0931 11.7327 17.3861 11.3649 16.5535 11.3649C16.4862 11.3649 16.4255 11.378 16.4028 11.3829L16.4027 11.3829C16.3686 11.3903 16.3317 11.3998 16.2946 11.4101C16.2264 11.4291 16.1408 11.4553 16.0401 11.4877C15.9635 11.502 15.8996 11.5117 15.8472 11.518C15.8622 11.4029 15.8877 11.2722 15.9257 11.1245Z" />
  </symbol>

  <symbol id="icon-post" fill="none" viewBox="0 0 24 24">
    <path d="M10 6H7C5.89543 6 5 6.89543 5 8V18C5 19.1046 5.89543 20 7 20H17C18.1046 20 19 19.1046 19 18V15" stroke-linecap="round" stroke-linejoin="round"/>
    <path d="M10 15H13.3333L20 8.33333L16.6667 5L10 11.6667V15Z" stroke-linecap="round" stroke-linejoin="round"/>
    <path d="M15 7L18 10" />
  </symbol>

  <symbol id="icon-review" viewBox="0 0 24 24">
    <path d="M18 17L14 17L12 19L10 17L6 17C4.89543 17 4 16.1046 4 15L4 8C4 6.89543 4.89543 6 6 6L18 6C19.1046 6 20 6.89543 20 8L20 15C20 16.1046 19.1046 17 18 17Z" stroke-linejoin="round"/>
    <path d="M7 13H13" stroke-linecap="round"/>
    <path d="M7 10H17" stroke-linecap="round"/>
  </symbol>

  <symbol id="icon-alert" viewBox="0 0 16 16">
    <circle cx="8" cy="8" r="7" fill="#EB683F"/>
    <path d="M8.75956 5.43669L8.81421 4L7.19672 4L7.25137 5.43669L7.48087 9.25065H8.53005L8.75956 5.43669ZM8.00546 12C8.28962 12 8.52641 11.907 8.71585 11.7209C8.90528 11.528 9 11.2903 9 11.0078C9 10.7252 8.90528 10.491 8.71585 10.3049C8.52641 10.112 8.28962 10.0155 8.00546 10.0155C7.72131 10.0155 7.48452 10.112 7.29508 10.3049C7.09836 10.491 7 10.7252 7 11.0078C7 11.2903 7.09836 11.528 7.29508 11.7209C7.48452 11.907 7.72131 12 8.00546 12Z" fill="white"/>
  </symbol>
  
  <symbol id="icon-arrow-down-filled" viewBox="0 0 16 16">
    <path d="M7.23178 11.0781L4.36682 7.64018C3.82405 6.98886 4.2872 6 5.13504 6H10.865C11.7128 6 12.176 6.98886 11.6332 7.64018L8.76822 11.0781C8.36843 11.5579 7.63158 11.5579 7.23178 11.0781Z" />
  </symbol>
  
  <symbol id="icon-arrow-up-filled" viewBox="0 0 16 16">
    <path d="M8.76822 5.92186L11.6332 9.35982C12.176 10.0111 11.7128 11 10.865 11L5.13504 11C4.2872 11 3.82405 10.0111 4.36682 9.35982L7.23178 5.92186C7.63157 5.44211 8.36843 5.44211 8.76822 5.92186Z" />
  </symbol>
  
  <symbol id="icon-arrow-topright" fill='none' viewBox="0 0 16 16">
    <path d="M6.47168 4.92871L11.3285 4.92871L11.3285 9.78549" stroke="#A5A5A5" stroke-linecap="round" stroke-linejoin="round"/>
    <line x1="11.0215" y1="5.32844" x2="5.05051" y2="11.2994" stroke="#A5A5A5" stroke-linecap="round" stroke-linejoin="round"/>
  </symbol>
  
  <symbol id="icon-hyphen" viewBox="0 0 16 16">
    <rect x="4" y="7" width="8" height="2" rx="1"/>
  </symbol>
  
  <symbol id="icon-new" fill="none" viewBox="0 0 16 16">
    <rect x="1" y="1" width="14" height="14" rx="7" stroke="none" fill="#FFEB60"/>
    <path d="M6 10.5V5.5L10 10.5V5.5" stroke="#242424" stroke-linecap="round" stroke-linejoin="round"/>
  </symbol>
</svg>
  